<svg width="482" height="414" viewBox="0 0 482 414" fill="none" xmlns="http://www.w3.org/2000/svg">
<g clip-path="url(#clip0_138_515)">
<path d="M428.517 278.627C417.068 273.456 415.322 261.008 410.595 254.535C405.868 248.062 394.419 244.083 394.419 244.083C394.419 244.083 405.369 235.615 422.792 237.61C430.978 238.543 437.136 242.229 442.167 246.241C439.586 238.749 442.21 234.422 437.732 227.288C432.507 218.961 422.304 214.461 416.58 200.626C410.855 186.791 416.58 174.387 416.58 174.387C416.58 174.387 418.325 179.364 425.297 184.341C431.531 188.786 449.084 189.469 459.503 202.903C454.125 127.147 401.455 85.7389 365.015 64.1406C333.715 45.5891 313.505 6.87042 228.927 12.476C144.36 18.0816 125.528 72.3484 104.57 113.42C92.9696 136.157 66.7429 141.188 44.6254 156.833C60.9967 152.551 71.3833 160.455 83.7106 162.938C98.4881 165.919 100.819 155.5 114.09 155.565C127.36 155.63 132.348 160.281 132.348 160.281C132.348 160.281 119.077 158.286 114.762 169.573C110.447 180.86 105.134 185.1 91.8637 183.311C78.5932 181.522 74.7443 182.487 67.7079 188.808C60.6715 195.129 44.4086 190.478 35.117 192.809C29.6093 194.186 22.1284 203.944 16.9351 211.675C21.1309 208.281 26.8663 204.54 34.5966 201.093C56.1721 191.464 83.7214 209.073 83.7214 209.073C83.7214 209.073 61.9942 214.049 49.385 222.68C36.7758 231.311 27.8095 223.016 19.1902 225.998C14.8643 227.494 11.384 229.012 8.9771 230.15C8.9771 230.183 8.96626 230.216 8.96626 230.248C7.23155 257.083 17.3796 280.904 34.5966 301.332C76.7717 351.327 161.426 380.948 218.411 384.494C278.009 388.191 382.601 366.051 432.268 300.074C436.659 294.241 440.627 288.05 444.086 281.512C439.088 281.479 433.374 280.818 428.517 278.627Z" fill="#A8B2F4"/>
<path d="M194.107 151.692C210.026 144.966 217.479 126.607 210.753 110.687C204.027 94.7674 185.67 87.3142 169.751 94.0403C153.832 100.766 146.379 119.125 153.105 135.045C159.83 150.965 178.188 158.418 194.107 151.692Z" fill="#7C84D5"/>
<path d="M397.53 102.935C403.806 102.935 408.893 97.8478 408.893 91.5722C408.893 85.2966 403.806 80.2092 397.53 80.2092C391.255 80.2092 386.168 85.2966 386.168 91.5722C386.168 97.8478 391.255 102.935 397.53 102.935Z" fill="#7C84D5"/>
<path d="M432.236 300.063C382.569 366.04 277.977 388.18 218.379 384.483C161.393 380.937 76.7396 351.316 34.5645 301.321C50.6322 283.517 91.7014 247.444 167.487 237.306C269.379 223.667 340.394 304.573 417.393 300.302C422.576 300.009 427.52 299.944 432.236 300.063Z" fill="#7C84D5"/>
<path d="M101.957 89.7506C111.412 61.3757 89.0122 74.4843 80.5555 92.5697C72.0879 110.655 56.1611 112.65 56.1611 122.853C56.1611 133.066 92.4925 118.136 101.957 89.7506Z" stroke="#7C84D5" stroke-miterlimit="10"/>
<path d="M361.308 54.1547C361.308 54.1547 334.929 31.7649 324.217 24.5438C313.516 17.3227 318.243 7.61863 342.757 18.819C367.271 30.0193 377.722 51.6501 374.491 56.1389C371.271 60.6277 361.308 54.1547 361.308 54.1547Z" stroke="#7C84D5" stroke-miterlimit="10"/>
<path d="M116.476 121.162C116.476 122.105 115.717 122.864 114.773 122.864C113.83 122.864 113.071 122.105 113.071 121.162C113.071 120.218 113.83 119.459 114.773 119.459C115.717 119.459 116.476 120.218 116.476 121.162Z" fill="#5661AF"/>
<path d="M130.743 124.371C130.743 125.314 129.984 126.073 129.041 126.073C128.098 126.073 127.339 125.314 127.339 124.371C127.339 123.427 128.098 122.668 129.041 122.668C129.984 122.668 130.743 123.438 130.743 124.371Z" fill="#5661AF"/>
<path d="M178.437 73.5844C178.437 74.5277 177.678 75.2866 176.734 75.2866C175.791 75.2866 175.032 74.5277 175.032 73.5844C175.032 72.6411 175.791 71.8821 176.734 71.8821C177.678 71.8821 178.437 72.6411 178.437 73.5844Z" fill="#5661AF"/>
<path d="M400.935 224.328C400.935 225.271 400.176 226.03 399.232 226.03C398.289 226.03 397.53 225.271 397.53 224.328C397.53 223.385 398.289 222.626 399.232 222.626C400.176 222.626 400.935 223.385 400.935 224.328Z" fill="#5661AF"/>
<path d="M406.725 219.72C406.725 220.663 405.966 221.422 405.023 221.422C404.079 221.422 403.32 220.663 403.32 219.72C403.32 218.777 404.079 218.018 405.023 218.018C405.966 218.018 406.725 218.787 406.725 219.72Z" fill="#5661AF"/>
<path d="M124.606 118.386C126.121 118.386 127.349 117.158 127.349 115.643C127.349 114.128 126.121 112.899 124.606 112.899C123.091 112.899 121.863 114.128 121.863 115.643C121.863 117.158 123.091 118.386 124.606 118.386Z" fill="#5661AF"/>
<path d="M413.414 136.937C414.929 136.937 416.157 135.709 416.157 134.194C416.157 132.679 414.929 131.451 413.414 131.451C411.899 131.451 410.671 132.679 410.671 134.194C410.671 135.709 411.899 136.937 413.414 136.937Z" fill="#5661AF"/>
<path d="M121.864 216.532C121.864 218.495 120.281 220.078 118.319 220.078C116.356 220.078 114.773 218.495 114.773 216.532C114.773 214.57 116.356 212.987 118.319 212.987C120.281 212.987 121.864 214.57 121.864 216.532Z" stroke="white" stroke-miterlimit="10"/>
<path d="M322.375 65.2357C322.375 67.1982 320.792 68.7812 318.83 68.7812C316.867 68.7812 315.284 67.1982 315.284 65.2357C315.284 63.2732 316.867 61.6902 318.83 61.6902C320.781 61.6902 322.375 63.284 322.375 65.2357Z" stroke="white" stroke-miterlimit="10"/>
<path d="M148.916 64.4139C154.726 62.1236 157.579 55.5568 155.289 49.7465C152.999 43.9361 146.433 41.0826 140.622 43.3729C134.812 45.6631 131.959 52.23 134.249 58.0403C136.539 63.8506 143.106 66.7042 148.916 64.4139Z" stroke="white" stroke-miterlimit="10"/>
<path d="M459.985 172.87C471.839 168.034 477.528 154.505 472.693 142.651C467.857 130.797 454.328 125.107 442.475 129.943C430.622 134.778 424.932 148.308 429.768 160.162C434.603 172.016 448.132 177.706 459.985 172.87Z" stroke="white" stroke-miterlimit="10"/>
<path d="M16.6752 287.345C29.4772 287.345 39.8552 276.966 39.8552 264.163C39.8552 251.361 29.4772 240.982 16.6752 240.982C3.87318 240.982 -6.50488 251.361 -6.50488 264.163C-6.50488 276.966 3.87318 287.345 16.6752 287.345Z" stroke="white" stroke-miterlimit="10"/>
<path d="M23.4222 122.564C16.4128 104.241 16.3386 90.2322 16.6298 74.4143C16.0629 61.1711 12.4395 45.8179 1.01522 39.0501C8.08974 47.7566 10.3944 59.1011 10.8545 69.0903C11.0071 78.2861 8.18753 103.953 23.4222 122.564Z" fill="#5661AF"/>
<path d="M43.8534 174.912C40.2715 168.927 37.0203 163.489 35.3468 154.595C30.9854 131.971 42.5863 105.623 27.7721 88.2784C36.409 112.085 23.7131 132.035 31.0564 155.686C33.4559 163.287 37.6829 169.707 43.8534 174.912Z" fill="#5661AF"/>
<g clip-path="url(#clip1_138_515)">
<path d="M484.165 372.344C479.834 366.876 475.902 361.908 473.084 353.308C465.813 331.445 473.884 303.81 456.937 288.543C468.601 311.022 458.611 332.455 468.973 354.948C472.342 362.172 477.369 367.987 484.165 372.344Z" fill="#5661AF"/>
<path d="M462.191 336.94C455.169 318.622 455.085 304.613 455.365 288.795C454.789 275.552 451.155 260.201 439.726 253.441C446.806 262.143 449.119 273.486 449.586 283.475C449.745 292.67 446.943 318.34 462.191 336.94Z" fill="#5661AF"/>
</g>
<path d="M442.897 377.827C444.888 372.643 446.693 367.933 446.69 360.763C446.765 342.51 433.318 323.695 442.684 308.021C439.32 327.821 452.676 341.494 450.338 360.984C449.555 367.254 447.108 372.871 442.897 377.827Z" fill="#5661AF"/>
<path d="M45.6711 80.5695C46.6232 75.0984 47.4855 70.1282 46.0978 63.0939C42.6482 45.1697 25.8217 29.3047 31.9854 12.1174C32.5073 32.1949 48.2518 43.0319 49.7205 62.6068C50.1622 68.9097 48.8453 74.8937 45.6711 80.5695Z" fill="#5661AF"/>
<path d="M192.593 40.6235C192.593 40.6235 187.714 43.1607 187.475 53.8514C187.248 64.5421 197.493 69.4972 203.955 69.3779L203.391 67.7082C203.391 67.7082 192.387 66.4938 189.535 57.1584C186.684 47.823 192.896 41.4909 192.896 41.4909L192.593 40.6235Z" fill="#3D2624"/>
<path d="M370.433 227.202C370.433 227.202 368.2 244.105 338.558 250.556C308.916 257.008 278.342 240.104 278.342 240.104L283.329 239.606C283.329 239.606 300.611 249.624 321.352 248.399C342.092 247.174 353.834 234.575 353.834 234.575L370.433 227.202Z" fill="#3D2624"/>
<path d="M377.741 145.46C379.584 124.567 350.701 103.055 316.289 97.5144C281.877 91.9739 284.36 55.272 284.36 55.272L215.611 94.8363C215.611 94.8363 212.434 127.635 189.525 146.078C166.605 164.51 162.67 208.141 173.425 225.348C184.18 242.555 203.229 243.78 232.882 241.937C262.535 240.094 276.272 241.633 309.231 244.398C342.191 247.163 365.685 254.655 385.699 218.127C405.713 181.609 377.741 145.46 377.741 145.46ZM374.977 143.779C374.977 143.779 371.442 133.49 357.922 122.886C344.402 112.282 333.647 106.449 333.647 106.449C375.736 119.666 376.202 143.779 376.202 143.779H374.977Z" fill="#3D2624"/>
<path d="M191.921 126.843C191.921 126.843 182.185 135.626 175.268 154.069C168.351 172.501 153.758 229.652 153.758 229.652L177.35 244.365L200.15 182.032L191.921 126.843Z" fill="#C56E5D"/>
<path d="M285.92 215.481C282.332 226.096 283.21 237.719 288.392 247.662L289.661 253.137V253.148L293.13 268.1C269.365 288.733 236.351 295.683 216.055 291.205C195.737 286.716 190.576 270.095 190.576 270.095L193.71 248.128L188.332 199.25C188.332 199.25 184.125 192.831 182.336 178.042C180.537 163.242 191.921 126.854 191.921 126.854L228.903 112.065L255.877 109.766L300.861 126.854L306.683 141.437C306.477 149.504 300.535 170.235 294.334 189.828C291.396 199.12 288.403 208.173 285.92 215.481Z" fill="#F7DBC6"/>
<path d="M256.138 112.163C251.909 119.861 236.828 129.522 230.735 127.407C224.642 125.293 229.575 114.429 229.575 114.429C229.629 112.889 229.683 111.469 229.727 110.157C230.008 101.461 229.954 97.7963 229.954 97.7963L256.138 80.47C255.52 83.636 255.227 87.2465 255.118 90.8788C254.793 101.45 256.138 112.163 256.138 112.163Z" fill="#C56E5D"/>
<path d="M256.137 80.47C255.519 83.636 255.227 87.2465 255.118 90.8788C252.115 95.3784 247.117 102.122 241.924 105.831C236.557 109.658 232.166 110.233 229.737 110.168C230.019 101.472 229.965 97.8072 229.965 97.8072L256.137 80.47Z" fill="#AF5448"/>
<path d="M201.505 71.2646C201.505 71.2646 202.416 92.7002 217.508 102.361C232.6 112.022 253.731 91.8003 257.352 80.6217C260.973 69.4539 259.77 45.3076 259.77 45.3076C259.77 45.3076 239.831 32.0146 224.739 32.0146C209.647 32.0146 201.494 39.561 201.494 39.561C201.494 39.561 201.505 60.0968 201.505 71.2646Z" fill="#C56E5D"/>
<path d="M218.701 32.4375C218.701 32.4375 218.256 40.32 232.741 49.5253C247.226 58.7306 255.086 60.6172 255.086 60.6172L258.155 77.5424C258.155 77.5424 256.051 82.8552 255.455 84.7852C254.815 86.8886 255.065 93.5893 255.065 93.5893C255.065 93.5893 267.305 91.7786 271.534 80.459C271.534 80.459 284.056 71.1019 284.511 54.1984C284.967 37.2949 276.207 32.0146 276.207 32.0146C276.207 32.0146 273.951 11.7933 251.606 8.31288C229.261 4.84327 211.459 17.3664 211.459 17.3664C211.459 17.3664 200.595 15.8593 194.708 23.5575C188.821 31.2557 192.594 40.6128 192.594 40.6128C192.594 40.6128 187.465 45.5895 190.479 53.743C193.493 61.8966 201.495 62.9483 201.495 62.9483C201.495 62.9483 202.254 49.0591 206.319 42.1199C210.407 35.1915 218.701 32.4375 218.701 32.4375Z" fill="#3D2624"/>
<path d="M256.138 63.1109C256.138 63.1109 259.011 56.0199 264.887 55.2609C270.774 54.5019 271.23 64.9216 267.153 71.8608C263.077 78.8 257.341 77.4447 257.341 77.4447L256.138 63.1109Z" fill="#C56E5D"/>
<path d="M253.265 55.2285C253.265 55.2285 257.189 67.036 254.923 76.3931C254.923 76.3931 255.563 75.7643 256.387 74.5499C258.284 71.785 259.065 61.3003 259.922 57.7006L253.265 55.2285Z" fill="#3D2624"/>
<path d="M211.154 18.4398C211.154 18.4398 216.087 11.2946 225.444 8.37795C234.8 5.46131 242.65 8.37795 242.65 8.37795L244.157 8.28036C244.157 8.28036 235.408 4.07347 225.541 7.08769C215.686 10.0911 208.834 17.8435 208.834 17.8435L211.154 18.4398Z" fill="#3D2624"/>
<path d="M276.206 32.0146C276.206 32.0146 281.421 33.023 284.522 38.6503C287.623 44.2884 284.424 50.0024 284.424 50.0024L283.904 49.3085C283.904 49.3085 286.397 44.451 283.297 39.149C280.196 33.8362 276.206 34.1181 276.206 34.1181V32.0146Z" fill="#3D2624"/>
<path d="M203.392 59.3704C203.392 59.3704 204.02 57.9392 208.476 58.0259C212.943 58.1126 215.621 60.6173 215.621 60.6173C215.621 60.6173 213.572 56.779 209.506 56.2369C205.441 55.7056 203.478 58.7415 203.392 59.3704Z" fill="#3D2624"/>
<path d="M218.7 32.4375C218.7 32.4375 217.995 40.1682 222.527 46.4027C227.059 52.6371 240.438 52.6371 240.438 52.6371L240.969 53.8406C240.969 53.8406 227.753 53.9491 222.419 49.2217C217.085 44.4944 216.477 36.5793 217.486 32.4375H218.7Z" fill="#3D2624"/>
<path d="M227.688 59.8691C227.688 59.8691 228.415 58.221 233.565 58.3186C238.726 58.427 241.816 61.3112 241.816 61.3112C241.816 61.3112 239.441 56.8766 234.747 56.2585C230.052 55.6405 227.786 59.1427 227.688 59.8691Z" fill="#3D2624"/>
<path d="M215.621 80.1662C215.621 80.1662 216.304 80.8493 218.863 81.5974C221.432 82.3564 223.243 81.5974 223.243 81.5974C223.243 81.5974 222.473 80.1662 220.478 79.8626C218.483 79.559 215.621 80.1662 215.621 80.1662Z" fill="#913D37"/>
<path d="M215.621 60.6172C215.621 60.6172 217.041 62.1243 217.573 66.0493C218.104 69.9743 217.573 73.0644 217.573 73.0644C217.573 73.0644 215.784 62.8074 215.621 60.6172Z" fill="#AF5448"/>
<path d="M203.955 64.9976C203.955 64.9976 206.145 65.9409 208.899 66.2445C211.653 66.5481 215.046 65.6807 215.046 65.6807C215.046 65.6807 213.778 62.287 210.861 61.4955C206.254 60.2486 203.955 64.9976 203.955 64.9976Z" fill="#AF5448"/>
<path d="M227.688 65.5507C227.688 65.5507 228.144 62.0702 232.6 61.3004C237.056 60.5414 242.336 65.2146 242.336 65.2146C242.336 65.2146 233.576 69.3998 227.688 65.5507Z" fill="#AF5448"/>
<path d="M209.626 66.2121C206.655 66.1579 203.956 65.0085 203.956 65.0085L203.392 65.388C203.023 65.6374 202.199 65.735 202.199 65.735C203.002 66.082 203.826 66.0603 204.324 65.9952C205.354 66.5807 207.176 67.3831 209.507 67.4156C213.204 67.4698 215.058 66.1795 215.058 66.1795V65.6808C215.047 65.6808 212.597 66.2554 209.626 66.2121Z" fill="#3D2624"/>
<path d="M242.325 65.2253C242.325 65.2253 238.747 66.3204 235.028 66.418C231.32 66.5156 227.883 65.4313 227.883 65.4313L227.189 65.8651C226.745 66.147 225.715 66.2987 225.715 66.2987C226.723 66.624 227.764 66.559 228.393 66.4722C229.705 67.0469 232.014 67.795 234.92 67.7083C239.538 67.5673 240.969 66.4722 241.978 65.8108C242.119 65.7133 242.325 65.2253 242.325 65.2253Z" fill="#3D2624"/>
<path d="M215.621 87.0078C215.621 87.0078 216.38 87.3548 219.427 87.9619C222.473 88.5691 229.726 87.0078 229.726 87.0078C229.726 87.0078 224.381 86.097 222.668 86.2055C220.966 86.303 219.806 87.1487 219.806 87.1487C219.806 87.1487 218.245 85.9019 217.291 85.9019C216.337 85.9019 214.569 86.4548 214.569 86.4548L215.621 87.0078Z" fill="#913D37"/>
<path d="M216.717 90.239C216.717 90.239 218.788 91.6485 221.813 91.7461C224.827 91.8437 228.101 90.586 228.101 90.586C228.101 90.586 226.279 93.199 222.409 93.6002C218.527 94.0014 216.717 90.239 216.717 90.239Z" fill="#AF5448"/>
<path d="M179.659 283.388L192.648 255.577C192.648 255.577 201.289 264.684 227.678 265.606C254.067 266.527 289.661 253.137 289.661 253.137C289.661 253.137 298.78 276.665 298.78 285.426C298.78 294.187 246.706 328.753 246.706 328.753L215.828 326.443L179.659 283.388Z" fill="#743F3D"/>
<path d="M178.184 328.753C178.184 328.753 169.652 332.071 166.735 333.437C166.735 333.437 153.985 334.738 148.868 336.256C143.75 337.763 142.46 344.626 141.202 352.032C139.945 359.437 130.404 369.38 127.444 374.53C124.484 379.691 125.894 385.817 126.306 387.085C126.718 388.354 125.026 392.68 127.151 395.358C129.276 398.036 130.512 396.659 131.694 395.998C132.887 395.337 133.244 392.973 133.244 392.973C133.244 392.973 136.54 392.333 137.776 391.379C139.012 390.425 137.744 390.414 140.79 389.427C143.837 388.441 145.398 387.66 147.1 386.413C148.803 385.166 158.409 368.48 164.534 363.145C170.66 357.811 181.686 355.935 181.686 355.935L178.184 328.753Z" fill="#C56E5D"/>
<path d="M345.171 358.7C324.366 363.948 279.176 367.634 238.682 370.03C196.962 372.502 160.208 373.598 160.208 373.598L154.028 353.973L148.542 336.57L269.82 312.522C269.82 312.522 266.524 287.41 292.935 273.879C292.935 273.879 371.582 274.508 390.642 296.626C409.692 318.767 389.114 347.651 345.171 358.7Z" fill="#743F3D"/>
<path d="M226.777 351.804C226.777 351.804 235.31 355.122 238.226 356.488C238.226 356.488 250.977 357.789 256.094 359.307C261.211 360.814 262.502 367.677 263.759 375.083C265.017 382.488 274.558 392.431 277.518 397.581C280.477 402.742 279.068 408.868 278.656 410.137C278.244 411.405 279.935 415.731 277.81 418.41C275.685 421.088 274.449 419.711 273.268 419.049C272.075 418.388 271.717 416.024 271.717 416.024C271.717 416.024 268.421 415.385 267.185 414.43C265.949 413.476 267.218 413.465 264.171 412.479C261.125 411.492 259.553 410.711 257.861 409.464C256.159 408.218 246.553 391.531 240.427 386.196C234.302 380.862 223.275 378.986 223.275 378.986L226.777 351.804Z" fill="#C56E5D"/>
<path d="M186.326 278.509C186.326 278.509 82.6341 278.509 66.0351 296.941C49.4469 315.373 58.6626 338.88 72.0307 346.719C85.3988 354.558 225.498 385.893 225.498 385.893L232.871 343.032L212.206 336.581L223.276 321.759L186.326 278.509Z" fill="#743F3D"/>
<path d="M186.022 282.51C186.022 282.51 207.663 309.301 219.426 317.26C219.426 317.26 195.238 314.766 186.022 282.51Z" fill="#5E3030"/>
<path d="M102.453 305.702C102.453 305.702 120.429 308.011 148.542 313.996C176.655 319.992 212.217 336.581 212.217 336.581C212.217 336.581 175.745 311.697 147.165 305.702C118.586 299.716 102.453 305.702 102.453 305.702Z" fill="#5E3030"/>
<path d="M202.72 330.531C202.72 330.531 286.333 305.571 321.363 299.879C321.363 299.879 247.302 322.139 212.206 336.581L202.72 330.531Z" fill="#5E3030"/>
<path d="M283.34 280.308C283.34 280.308 242.802 300.313 229.163 320.599C229.163 320.599 271.891 298.686 283.34 280.308Z" fill="#5E3030"/>
<path d="M177.36 244.365C177.36 244.365 170.476 227.614 154.332 227.462L90.2236 270.951C88.9876 270.312 86.8192 269.422 83.4691 268.794C77.6903 267.72 66.2846 267.85 63.3247 267.319C61.9045 267.059 61.8177 267.774 62.4249 268.707C61.4816 268.317 59.9854 269.368 58.8253 271.071C57.0039 273.759 52.4394 278.758 52.4394 281.566C52.4394 284.363 57.4051 287.193 60.3649 287.323C60.3649 287.323 50.2927 289.871 48.4171 293.504C46.5414 297.125 51.507 296.594 53.1116 295.791C54.7271 294.989 65.0595 292.17 65.0595 292.17C65.0595 292.17 54.8572 297.808 54.5861 301.701C54.3151 305.593 57.8062 303.316 61.0263 301.701C64.2463 300.085 70.0251 297.136 70.0251 297.136C70.0251 297.136 61.6985 303.175 63.173 305.864C64.6475 308.553 71.4996 302.416 77.0073 299.912C82.515 297.407 86.6783 297.038 91.3186 295.228C97.8238 292.701 101.25 287.258 101.25 287.258C112.721 283.008 161.813 263.914 177.36 244.365ZM69.3745 280.894C64.8101 282.509 59.5734 280.894 58.9012 280.092C58.229 279.289 63.3356 274.584 63.3356 270.962C63.3356 270.398 63.2597 269.954 63.1513 269.607C63.8994 270.387 64.951 271.179 66.0135 271.634C68.8433 272.838 75.0232 273.51 76.6278 274.453C78.2324 275.386 73.939 279.278 69.3745 280.894Z" fill="#C56E5D"/>
<path d="M388.496 189.253C388.496 189.253 394.329 207.078 390.339 220.371C386.35 233.653 371.062 236.656 371.062 236.656L373.524 233.588C373.524 233.588 388.583 231.051 389.429 210.385C390.177 192.018 388.496 189.253 388.496 189.253Z" fill="#3D2624"/>
<path d="M77.4844 274.226C77.4844 274.226 82.5584 277.11 88.1962 277.11C93.8449 277.11 87.047 279.647 82.8403 278.379C78.6336 277.11 77.4844 274.226 77.4844 274.226Z" fill="#AF5448"/>
<path d="M95.2653 284.255C95.2653 284.255 91.8067 284.374 86.9712 286.901C82.1357 289.438 79.5987 295.889 78.3302 294.848C77.0617 293.818 80.5203 283.908 95.2653 284.255Z" fill="#AF5448"/>
<path d="M61.8828 287.161C61.8828 287.161 72.4754 295.726 73.7439 295.846C75.0124 295.954 69.3746 287.627 61.8828 287.161Z" fill="#AF5448"/>
<path d="M192.159 195.249C192.159 195.249 197.385 192.506 213.312 192.506C229.239 192.506 255.758 198.729 255.758 198.729C255.758 198.729 206.839 198.989 192.159 195.249Z" fill="#EFC9B6"/>
<path d="M288.414 247.944L289.682 253.419V253.43L267.099 260.402C267.099 260.402 278.591 232.634 278.363 211.393C278.147 190.153 285.075 163.708 285.075 163.708L294.344 190.11C291.406 199.412 288.414 208.466 285.931 215.774C282.353 226.389 283.231 238.001 288.414 247.944Z" fill="#EFC9B6"/>
<path d="M405.063 313.898C403.892 309.984 394.47 305.604 394.47 305.604C397.398 306.027 402.808 304.173 403.328 301.419C403.848 298.665 400.292 292.896 399.002 289.926C398.178 288.028 396.91 286.716 395.912 286.933C396.682 286.12 396.736 285.404 395.294 285.404C392.291 285.383 381.102 283.127 375.226 283.106C372.862 283.095 371.03 283.323 369.686 283.594L326.741 223.201C324.366 208.444 321.092 171.081 317.221 154.524C312.147 132.861 300.861 126.843 300.861 126.843C300.861 126.843 286.864 135.17 284.522 151.304C282.191 167.438 302.747 239.606 302.747 239.606C310.044 260.141 348.49 292.951 353.845 299.077C353.845 299.077 356.654 303.913 362.573 307.599C366.802 310.234 370.824 311.372 375.768 314.863C380.712 318.355 386.295 325.652 388.247 323.288C390.199 320.924 383.14 313.432 383.14 313.432C383.14 313.432 388.269 317.411 391.131 319.591C393.993 321.77 397.007 324.665 397.463 320.794C397.918 316.913 388.941 309.475 388.941 309.475C388.941 309.475 398.579 314.17 400.01 315.265C401.452 316.36 406.245 317.813 405.063 313.898ZM386.837 297.602C382.653 295.173 379.151 290.544 380.918 289.915C382.674 289.286 388.865 289.785 391.879 289.123C393.007 288.874 394.188 288.299 395.067 287.66C394.882 287.985 394.73 288.397 394.633 288.961C393.961 292.528 398.102 298.09 397.289 298.762C396.465 299.424 391.022 300.031 386.837 297.602Z" fill="#C56E5D"/>
<path d="M379.552 290.49C379.552 290.49 374.478 293.374 368.84 293.374C363.191 293.374 369.989 295.911 374.196 294.642C378.402 293.374 379.552 290.49 379.552 290.49Z" fill="#AF5448"/>
<path d="M358.096 298.079C358.096 298.079 361.554 298.198 366.39 300.725C371.225 303.262 373.762 309.713 375.031 308.672C376.299 307.642 372.852 297.732 358.096 298.079Z" fill="#AF5448"/>
<path d="M390.187 303.934C390.187 303.934 379.595 312.5 378.326 312.619C377.058 312.728 382.696 304.401 390.187 303.934Z" fill="#AF5448"/>
<path d="M225.141 118.755C225.141 118.755 220.11 128.34 228.101 130.953C236.091 133.566 249.785 124.48 256.756 117.757C256.756 117.757 247.551 132.568 232.611 134.932C217.671 137.296 221.129 122.008 225.141 118.755Z" fill="#EFC9B6"/>
</g>
<defs>
<clipPath id="clip0_138_515">
<rect width="482" height="414" fill="white"/>
</clipPath>
<clipPath id="clip1_138_515">
<rect width="126.86" height="17.54" fill="white" transform="translate(448.345 250.554) rotate(71.4803)"/>
</clipPath>
</defs>
</svg>
